<svg width="100" height="99" viewBox="0 0 100 99" fill="none" xmlns="http://www.w3.org/2000/svg">
<circle cx="49.606" cy="49.5" r="49.5" fill="white"/>
<path d="M30.526 43.8C32.5926 43.8 34.2126 44.3733 35.386 45.52C36.5726 46.6533 37.166 48.28 37.166 50.4C37.166 52.52 36.5726 54.1533 35.386 55.3C34.2126 56.4333 32.5926 57 30.526 57H26.266V43.8H30.526ZM30.686 55.5C32.1926 55.5 33.366 55.0533 34.206 54.16C35.0593 53.2533 35.486 52 35.486 50.4C35.486 48.8 35.0593 47.5533 34.206 46.66C33.366 45.7533 32.1926 45.3 30.686 45.3H27.866V55.5H30.686ZM40.2824 57V47H41.5824L41.8024 48.64C42.0824 48.0267 42.489 47.5667 43.0224 47.26C43.569 46.9533 44.229 46.8 45.0024 46.8C45.1757 46.8 45.3624 46.8133 45.5624 46.84C45.7757 46.8667 45.9557 46.92 46.1024 47L45.8224 48.46C45.6757 48.4067 45.5157 48.3667 45.3424 48.34C45.169 48.3133 44.9224 48.3 44.6024 48.3C44.189 48.3 43.769 48.42 43.3424 48.66C42.929 48.9 42.5824 49.2667 42.3024 49.76C42.0224 50.24 41.8824 50.8533 41.8824 51.6V57H40.2824ZM54.013 50.54C54.013 49.7933 53.813 49.22 53.413 48.82C53.013 48.4067 52.4463 48.2 51.713 48.2C51.0197 48.2 50.433 48.3533 49.953 48.66C49.473 48.9533 49.1197 49.4333 48.893 50.1L47.593 49.3C47.8597 48.5533 48.353 47.9533 49.073 47.5C49.793 47.0333 50.6863 46.8 51.753 46.8C52.473 46.8 53.1263 46.9267 53.713 47.18C54.2997 47.42 54.7597 47.7933 55.093 48.3C55.4397 48.7933 55.613 49.4333 55.613 50.22V55.06C55.613 55.54 55.8663 55.78 56.373 55.78C56.6263 55.78 56.873 55.7467 57.113 55.68L57.033 56.94C56.7663 57.0733 56.4197 57.14 55.993 57.14C55.6063 57.14 55.2597 57.0667 54.953 56.92C54.6463 56.7733 54.4063 56.5533 54.233 56.26C54.0597 55.9533 53.973 55.5733 53.973 55.12V54.92L54.373 54.98C54.213 55.5 53.9397 55.9267 53.553 56.26C53.1663 56.58 52.733 56.82 52.253 56.98C51.773 57.1267 51.2997 57.2 50.833 57.2C50.2463 57.2 49.6997 57.1 49.193 56.9C48.6863 56.7 48.2797 56.4 47.973 56C47.6797 55.5867 47.533 55.08 47.533 54.48C47.533 53.7333 47.7797 53.12 48.273 52.64C48.7797 52.1467 49.4797 51.8133 50.373 51.64L54.333 50.86V52.18L51.113 52.84C50.4597 52.9733 49.973 53.16 49.653 53.4C49.333 53.64 49.173 53.9733 49.173 54.4C49.173 54.8133 49.333 55.1533 49.653 55.42C49.9863 55.6733 50.453 55.8 51.053 55.8C51.4397 55.8 51.8063 55.7533 52.153 55.66C52.513 55.5533 52.833 55.4 53.113 55.2C53.393 54.9867 53.613 54.7267 53.773 54.42C53.933 54.1 54.013 53.7267 54.013 53.3V50.54ZM67.9211 45.16L68.2811 46.58C68.2678 46.58 68.2478 46.58 68.2211 46.58C68.1944 46.58 68.1678 46.58 68.1411 46.58C67.4878 46.58 66.9811 46.7133 66.6211 46.98C66.2744 47.2333 66.1011 47.6467 66.1011 48.22L65.1211 47.72C65.1211 47.2 65.2411 46.7467 65.4811 46.36C65.7211 45.9733 66.0478 45.68 66.4611 45.48C66.8744 45.2667 67.3278 45.16 67.8211 45.16C67.8344 45.16 67.8478 45.16 67.8611 45.16C67.8878 45.16 67.9078 45.16 67.9211 45.16ZM64.8811 55.72C65.8278 55.72 66.5678 55.94 67.1011 56.38C67.6344 56.8067 67.9011 57.38 67.9011 58.1C67.9011 58.7533 67.6811 59.32 67.2411 59.8C66.8144 60.28 66.2344 60.6467 65.5011 60.9C64.7811 61.1667 63.9678 61.3 63.0611 61.3C61.4878 61.3 60.3078 61.0333 59.5211 60.5C58.7478 59.9667 58.3611 59.3267 58.3611 58.58C58.3611 58.0467 58.5344 57.5667 58.8811 57.14C59.2411 56.7267 59.8411 56.4933 60.6811 56.44L60.5411 56.74C60.0878 56.62 59.7011 56.42 59.3811 56.14C59.0744 55.8467 58.9211 55.4267 58.9211 54.88C58.9211 54.3333 59.1211 53.8667 59.5211 53.48C59.9344 53.08 60.5411 52.8333 61.3411 52.74L62.4011 53.28H62.2011C61.5478 53.3467 61.0811 53.5133 60.8011 53.78C60.5344 54.0333 60.4011 54.3133 60.4011 54.62C60.4011 54.9933 60.5344 55.2733 60.8011 55.46C61.0811 55.6333 61.4678 55.72 61.9611 55.72H64.8811ZM63.0411 59.96C63.8144 59.96 64.4478 59.88 64.9411 59.72C65.4478 59.56 65.8211 59.3533 66.0611 59.1C66.3011 58.8467 66.4211 58.5733 66.4211 58.28C66.4211 57.92 66.2744 57.6333 65.9811 57.42C65.7011 57.2067 65.1878 57.1 64.4411 57.1H61.3611C60.9344 57.1 60.5744 57.2067 60.2811 57.42C59.9878 57.6467 59.8411 57.9533 59.8411 58.34C59.8411 58.8333 60.1211 59.2267 60.6811 59.52C61.2544 59.8133 62.0411 59.96 63.0411 59.96ZM62.9011 46.8C63.7011 46.8 64.4078 46.9467 65.0211 47.24C65.6478 47.52 66.1344 47.9133 66.4811 48.42C66.8278 48.9267 67.0011 49.5133 67.0011 50.18C67.0011 50.8333 66.8278 51.42 66.4811 51.94C66.1344 52.4467 65.6478 52.8467 65.0211 53.14C64.4078 53.42 63.7011 53.56 62.9011 53.56C61.5811 53.56 60.5678 53.2467 59.8611 52.62C59.1544 51.98 58.8011 51.1667 58.8011 50.18C58.8011 49.5133 58.9744 48.9267 59.3211 48.42C59.6811 47.9133 60.1678 47.52 60.7811 47.24C61.3944 46.9467 62.1011 46.8 62.9011 46.8ZM62.9011 48.1C62.2078 48.1 61.6278 48.2933 61.1611 48.68C60.6944 49.0533 60.4611 49.5533 60.4611 50.18C60.4611 50.7933 60.6944 51.2933 61.1611 51.68C61.6278 52.0667 62.2078 52.26 62.9011 52.26C63.5944 52.26 64.1744 52.0667 64.6411 51.68C65.1078 51.2933 65.3411 50.7933 65.3411 50.18C65.3411 49.5533 65.1078 49.0533 64.6411 48.68C64.1744 48.2933 63.5944 48.1 62.9011 48.1Z" fill="black"/>
</svg>
